<?xml version="1.0" standalone="no"?>
<!DOCTYPE svg PUBLIC "-//W3C//DTD SVG 20010904//EN"
 "http://www.w3.org/TR/2001/REC-SVG-20010904/DTD/svg10.dtd">
<svg version="1.0" xmlns="http://www.w3.org/2000/svg"
 width="449.000000pt" height="555.000000pt" viewBox="0 0 449.000000 555.000000"
 preserveAspectRatio="xMidYMid meet">

<g transform="translate(0.000000,555.000000) scale(0.100000,-0.100000)"
fill="#000000" stroke="none">
<path d="M241 3094 c1 -101 2 -107 14 -79 8 17 14 36 15 43 0 18 35 28 123 35
77 7 97 -1 58 -22 -17 -9 -18 -19 -14 -71 l6 -60 -45 0 c-24 0 -48 4 -54 10
-5 5 -15 6 -22 1 -9 -5 -12 -29 -10 -82 l3 -74 17 38 c17 37 19 38 60 35 l43
-3 3 -187 c1 -108 -1 -188 -7 -188 -5 0 -15 10 -24 23 -8 12 -23 31 -33 42
-60 64 -104 125 -104 144 0 11 -6 21 -14 21 -28 0 -54 -117 -37 -163 6 -15 45
-70 87 -122 l76 -95 24 18 c13 9 24 20 24 24 0 11 81 55 113 62 l29 7 -4 329
-3 328 23 24 c41 44 33 47 -140 51 -90 2 -173 7 -185 11 -23 8 -23 8 -22 -100z"/>
<path d="M811 3159 c-7 -22 -10 -44 -7 -47 4 -3 22 10 41 28 36 35 36 43 -1
54 -18 5 -23 0 -33 -35z"/>
<path d="M922 3173 c-19 -53 -21 -63 -12 -63 6 0 24 15 40 33 26 29 28 33 13
45 -24 17 -29 15 -41 -15z"/>
<path d="M3131 3159 c-7 -23 -10 -44 -7 -47 8 -8 66 49 66 64 0 11 -21 24 -39
24 -4 0 -13 -18 -20 -41z"/>
<path d="M3365 3170 c-16 -17 -47 -36 -68 -42 l-39 -12 6 -44 c3 -25 6 -199 6
-388 0 -323 1 -344 18 -344 10 0 22 12 29 30 7 18 21 32 37 36 l26 6 0 339 0
339 40 -6 c37 -6 43 -4 80 34 53 53 52 80 -1 51 -16 -8 -28 -6 -55 10 -45 27
-45 27 -79 -9z"/>
<path d="M3550 3127 c-18 -29 -48 -66 -66 -84 -25 -24 -29 -33 -18 -37 13 -5
15 -42 12 -256 -3 -216 -1 -251 12 -255 8 -2 35 -6 60 -10 43 -5 46 -4 68 31
27 44 28 54 2 54 -19 0 -20 7 -20 215 l0 215 25 0 c18 0 31 10 45 33 30 48 26
57 -25 57 l-45 0 0 39 c0 22 -4 42 -9 45 -4 3 -23 -18 -41 -47z"/>
<path d="M1948 3073 c-8 -10 -25 -37 -37 -60 -27 -55 -44 -55 -39 -1 3 41 3
41 -41 56 -43 14 -45 14 -63 -9 -10 -13 -22 -29 -28 -36 -14 -17 -13 -24 6
-38 14 -10 16 -41 15 -241 l-2 -231 38 -11 c21 -6 56 -14 79 -18 38 -6 43 -4
63 24 11 17 21 34 21 40 0 5 7 15 15 22 17 14 11 30 -11 30 -8 0 -14 -7 -14
-15 0 -17 -18 -19 -54 -5 l-26 10 0 154 c0 148 1 156 23 182 l24 27 16 -48
c20 -58 22 -96 5 -113 -10 -10 -10 -15 2 -22 29 -18 80 58 80 120 0 43 -28
164 -43 184 -12 16 -14 16 -29 -1z"/>
<path d="M4007 3049 c-32 -49 -33 -55 -6 -62 20 -5 20 -11 18 -238 l-2 -232
37 -12 c20 -7 56 -16 79 -19 l42 -7 30 55 c22 42 27 58 18 67 -8 8 -14 6 -22
-9 -9 -16 -16 -19 -38 -13 l-28 7 0 167 c0 144 2 169 17 183 16 16 18 16 29
-12 7 -16 12 -57 12 -91 1 -69 10 -77 45 -40 34 36 44 83 32 152 -13 77 -38
145 -53 145 -7 0 -25 -25 -42 -55 -16 -30 -33 -55 -37 -55 -4 0 -8 17 -8 38 0
36 -3 40 -37 51 -21 7 -43 14 -49 17 -5 2 -22 -14 -37 -37z"/>
<path d="M768 3051 c-13 -17 -47 -41 -77 -55 l-54 -25 37 -37 c20 -20 35 -38
34 -39 -2 -1 -18 -10 -36 -19 -32 -16 -33 -20 -27 -54 7 -34 8 -260 2 -307 -2
-16 6 -20 45 -26 25 -4 55 -10 66 -13 17 -6 26 2 49 44 15 27 31 50 36 50 4 0
7 -17 7 -39 0 -35 2 -39 33 -44 17 -4 41 -9 53 -12 15 -5 23 0 32 17 6 13 19
33 28 45 15 22 15 23 -10 33 l-26 10 1 197 c0 109 4 207 8 218 7 17 1 23 -38
38 -37 15 -130 46 -138 47 -1 0 -12 -13 -25 -29z m86 -95 l31 -13 -29 -8 c-32
-9 -76 9 -84 34 -5 15 26 10 82 -13z m0 -87 c3 -17 6 -72 6 -122 0 -78 -3 -96
-25 -133 -22 -37 -28 -42 -48 -35 -21 8 -22 14 -25 147 l-2 139 27 17 c43 25
60 22 67 -13z"/>
<path d="M1156 3051 c-15 -16 -45 -37 -67 -46 l-39 -18 0 -239 0 -238 45 -12
c25 -7 45 -16 45 -20 0 -4 -13 -14 -28 -22 -29 -15 -88 -93 -78 -103 3 -3 17
4 32 16 32 25 51 26 120 4 l53 -16 33 32 c18 18 46 35 61 38 16 3 30 11 33 17
2 6 5 137 6 292 l3 281 -70 23 c-38 12 -80 26 -93 31 -13 5 -24 9 -26 9 -1 0
-15 -13 -30 -29z m89 -99 c15 -8 17 -27 16 -148 -2 -99 -6 -143 -15 -154 -8
-8 -21 -30 -30 -47 -18 -35 -23 -38 -45 -24 -11 7 -13 47 -12 197 1 103 4 191
7 195 5 8 51 -3 79 -19z m15 -418 l0 -76 -32 6 c-18 3 -36 10 -41 15 -8 8 52
131 66 131 4 0 7 -34 7 -76z"/>
<path d="M1545 3039 c-21 -22 -49 -42 -64 -45 l-26 -6 -1 -234 0 -234 50 -13
c158 -43 145 -45 190 35 20 34 24 48 15 54 -7 4 -18 -1 -25 -11 -12 -16 -17
-17 -66 -3 -51 14 -53 16 -56 52 -2 21 2 44 9 53 7 8 18 23 24 34 5 10 34 60
64 111 30 51 56 96 58 100 4 8 -89 115 -117 135 -14 10 -23 6 -55 -28z m64
-134 c17 -20 31 -38 31 -40 0 -12 -66 -135 -72 -135 -5 0 -8 47 -8 105 0 58 4
105 9 105 5 0 23 -16 40 -35z"/>
<path d="M2075 3044 l-28 -37 22 -16 c22 -17 22 -20 20 -256 l-2 -240 39 -7
c22 -3 45 -8 52 -10 7 -1 22 14 35 35 21 36 21 39 4 51 -15 12 -17 32 -17 158
l0 145 33 57 c28 49 35 55 57 50 14 -3 26 -7 27 -8 4 -3 5 -419 1 -445 -3 -22
2 -25 49 -36 l51 -12 23 40 c20 36 20 41 6 52 -13 9 -16 37 -18 153 l-2 142
32 51 c17 28 31 55 31 60 0 14 26 11 40 -6 10 -12 12 -68 8 -240 -4 -170 -2
-225 7 -229 7 -2 33 -7 57 -11 44 -7 46 -6 67 30 22 37 21 55 -4 55 -7 0 -16
7 -19 16 -10 25 -6 379 4 415 7 24 6 35 -3 41 -11 7 -109 38 -120 38 -3 0 -24
-34 -46 -75 -23 -41 -44 -75 -48 -75 -3 0 -3 23 -1 50 4 41 2 53 -12 60 -22
12 -102 40 -115 40 -5 0 -28 -32 -50 -70 -22 -38 -44 -70 -49 -70 -5 0 -6 24
-3 54 l5 55 -46 15 c-25 9 -49 16 -53 16 -3 0 -19 -16 -34 -36z"/>
<path d="M2827 3041 c-20 -21 -49 -41 -64 -44 l-28 -5 2 -234 2 -233 52 -17
c29 -10 73 -21 99 -24 l46 -6 32 52 c18 28 32 56 32 61 0 15 -28 10 -38 -7 -8
-14 -14 -14 -58 -1 -42 12 -49 18 -55 46 -6 26 5 51 68 163 42 73 77 137 79
143 4 9 -116 145 -128 145 -2 0 -20 -17 -41 -39z m62 -135 l34 -35 -16 -39
c-22 -55 -52 -103 -60 -95 -10 9 -9 203 1 203 4 0 23 -15 41 -34z"/>
<path d="M3047 3041 c-15 -22 -27 -43 -27 -46 0 -3 12 -10 26 -15 l26 -10 -4
-213 c-3 -116 -8 -220 -12 -229 -9 -21 12 -33 75 -42 45 -7 47 -6 68 29 26 45
26 44 -4 55 l-25 10 0 204 c0 113 4 216 10 231 9 24 7 27 -23 40 -74 31 -81
30 -110 -14z"/>
<path d="M3801 3040 c-20 -25 -40 -40 -54 -40 -12 0 -26 -4 -32 -8 -6 -4 -9
-92 -7 -237 l3 -230 62 -18 c34 -9 80 -20 103 -23 41 -6 41 -6 72 47 24 42 28
57 19 67 -9 12 -14 11 -25 -6 -11 -17 -18 -19 -55 -9 -23 5 -48 14 -54 20 -22
17 -14 61 22 121 19 32 35 60 35 61 0 2 18 35 40 74 22 39 40 76 40 83 -1 15
-114 138 -127 138 -5 0 -24 -18 -42 -40z m99 -176 c0 -13 -61 -124 -68 -124
-10 0 -15 154 -6 183 6 18 9 17 40 -17 19 -20 34 -39 34 -42z"/>
</g>
</svg>
